<svg width="72" height="13" viewBox="0 0 72 13" fill="none" xmlns="http://www.w3.org/2000/svg">
<path d="M0 12.8L0 0.435181L5.7984 0.435181C6.7712 0.435181 7.5648 0.620781 8.1792 0.991981C8.8064 1.36318 9.2736 1.86878 9.5808 2.50878C9.888 3.14878 10.0416 3.87838 10.0416 4.69758C10.0416 5.52958 9.8624 6.26558 9.504 6.90558C9.1584 7.54558 8.6592 8.04478 8.0064 8.40318C7.3664 8.74878 6.6048 8.92158 5.7216 8.92158H2.592L2.592 12.8H0ZM2.592 6.86718H5.184C5.9264 6.86718 6.4832 6.67518 6.8544 6.29118C7.2384 5.89438 7.4304 5.36318 7.4304 4.69758C7.4304 3.98078 7.2512 3.43678 6.8928 3.06558C6.5344 2.68158 5.9968 2.48958 5.28 2.48958L2.592 2.48958L2.592 6.86718Z" fill="#1D1D1D"/>
<path d="M16.2174 12.992C14.643 12.992 13.395 12.6016 12.4734 11.8208C11.5518 11.0272 11.091 9.83038 11.091 8.23038C11.091 6.78398 11.475 5.63838 12.243 4.79358C13.0238 3.93598 14.1822 3.50718 15.7182 3.50718C17.1262 3.50718 18.2014 3.87838 18.9438 4.62078C19.699 5.35038 20.0766 6.31038 20.0766 7.50078V9.15198L13.491 9.15198C13.6318 9.88158 13.9646 10.3808 14.4894 10.6496C15.027 10.9184 15.7822 11.0528 16.755 11.0528C17.2414 11.0528 17.7342 11.008 18.2334 10.9184C18.7454 10.8288 19.1806 10.7136 19.539 10.5728V12.416C19.1166 12.608 18.6238 12.7488 18.0606 12.8384C17.4974 12.9408 16.883 12.992 16.2174 12.992ZM13.491 7.55838H17.811V7.05918C17.811 6.53438 17.6574 6.12478 17.3502 5.83038C17.043 5.52318 16.5246 5.36958 15.795 5.36958C14.9374 5.36958 14.3358 5.54238 13.9902 5.88798C13.6574 6.23358 13.491 6.79038 13.491 7.55838Z" fill="#1D1D1D"/>
<path d="M25.4909 12.992C24.4413 12.992 23.6605 12.7168 23.1485 12.1664C22.6493 11.616 22.3997 10.8672 22.3997 9.91998V5.69598H21.1133V3.69918H22.3997V1.74078L24.9917 0.972781V3.69918H27.2957L27.1421 5.69598H24.9917V9.74718C24.9917 10.2464 25.1069 10.592 25.3373 10.784C25.5677 10.9632 25.9261 11.0528 26.4125 11.0528C26.7709 11.0528 27.1421 10.9888 27.5261 10.8608V12.6464C27.2445 12.7616 26.9373 12.8448 26.6044 12.896C26.2716 12.96 25.9005 12.992 25.4909 12.992Z" fill="#1D1D1D"/>
<path d="M32.0627 12.992C31.3842 12.992 30.7379 12.9408 30.1235 12.8384C29.5091 12.7488 29.0163 12.6336 28.6451 12.4928V10.3424C29.0931 10.5216 29.5987 10.6624 30.1619 10.7648C30.7251 10.8544 31.2435 10.8992 31.7171 10.8992C32.3571 10.8992 32.8051 10.8608 33.0611 10.784C33.3299 10.7072 33.4643 10.5344 33.4643 10.2656C33.4643 9.95838 33.2595 9.73438 32.8499 9.59358C32.4531 9.45278 31.8578 9.25438 31.0642 8.99838C30.2322 8.71678 29.5923 8.37758 29.1443 7.98078C28.6963 7.58398 28.4723 6.99518 28.4723 6.21438C28.4723 5.34398 28.7858 4.67838 29.413 4.21758C30.053 3.74398 31.077 3.50718 32.485 3.50718C33.0483 3.50718 33.5795 3.55198 34.0787 3.64158C34.5779 3.71838 35.0003 3.81438 35.3459 3.92958V6.06078C35.0003 5.89438 34.6035 5.77278 34.1555 5.69598C33.7075 5.60638 33.2914 5.56158 32.9074 5.56158C32.357 5.56158 31.9155 5.59998 31.5827 5.67678C31.2627 5.75358 31.1026 5.91998 31.1026 6.17598C31.1026 6.45758 31.2755 6.65598 31.6211 6.77118C31.9795 6.88638 32.5299 7.05918 33.2723 7.28958C34.0019 7.50718 34.5715 7.74398 34.9811 7.99998C35.3907 8.25598 35.6787 8.56318 35.8451 8.92158C36.0115 9.26718 36.0947 9.70238 36.0947 10.2272C36.0947 12.0704 34.7507 12.992 32.0627 12.992Z" fill="#1D1D1D"/>
<path d="M37.8938 12.8V0.435181L43.6922 0.435181C44.665 0.435181 45.4586 0.620781 46.0729 0.991981C46.7001 1.36318 47.1674 1.86878 47.4746 2.50878C47.7818 3.14878 47.9354 3.87838 47.9354 4.69758C47.9354 5.52958 47.7562 6.26558 47.3978 6.90558C47.0522 7.54558 46.553 8.04478 45.9002 8.40318C45.2602 8.74878 44.4986 8.92158 43.6154 8.92158H40.4858V12.8H37.8938ZM40.4858 6.86718H43.0778C43.8202 6.86718 44.377 6.67518 44.7482 6.29118C45.1322 5.89438 45.3242 5.36318 45.3242 4.69758C45.3242 3.98078 45.145 3.43678 44.7866 3.06558C44.4282 2.68158 43.8906 2.48958 43.1738 2.48958H40.4858V6.86718Z" fill="#1D1D1D"/>
<path d="M51.8546 12.992C51.2786 12.992 50.741 12.8896 50.2418 12.6848C49.7554 12.4672 49.3585 12.1536 49.0513 11.744C48.7569 11.3216 48.6098 10.7968 48.6098 10.1696C48.6098 9.27358 48.9234 8.55678 49.5506 8.01918C50.1906 7.48158 51.1313 7.21278 52.3729 7.21278H55.061V6.96318C55.061 6.39998 54.9009 6.00318 54.5809 5.77278C54.2737 5.54238 53.6466 5.42718 52.6994 5.42718C51.6626 5.42718 50.6642 5.58718 49.7042 5.90718V4.08318C50.1266 3.91678 50.6385 3.78238 51.2401 3.67998C51.8545 3.56478 52.5202 3.50718 53.237 3.50718C54.6066 3.50718 55.6626 3.78878 56.405 4.35198C57.1602 4.90238 57.5378 5.79198 57.5378 7.02078V12.8H55.2913L55.1569 11.9744C54.7985 12.2944 54.357 12.544 53.8322 12.7232C53.3074 12.9024 52.6482 12.992 51.8546 12.992ZM52.565 11.2832C53.141 11.2832 53.6401 11.1872 54.0625 10.9952C54.4849 10.8032 54.8178 10.56 55.061 10.2656V8.82558H52.4306C51.4194 8.82558 50.9137 9.24158 50.9137 10.0736C50.9137 10.88 51.4642 11.2832 52.565 11.2832Z" fill="#1D1D1D"/>
<path d="M61.1535 12.8L58.7535 3.69918L61.3455 3.69918L62.7279 9.61278L64.2447 4.87038V3.69918H66.2223L67.9503 9.61278L69.2943 3.69918H71.8671L69.4863 12.8H67.1055L65.3583 7.48158L63.5727 12.8H61.1535Z" fill="#1D1D1D"/>
</svg>
